<svg width="314" height="126" viewBox="0 0 314 126" fill="none" xmlns="http://www.w3.org/2000/svg">
<path d="M0 0H314V126H0V0Z" fill="#D1B06B"/>
<path d="M50 39C50 36.2386 52.2386 34 55 34H126C128.761 34 131 36.2386 131 39V88C131 90.7614 128.761 93 126 93H55C52.2386 93 50 90.7614 50 88V39Z" fill="#161D27"/>
<path d="M72.41 74.3C71.05 74.3 69.81 74.05 68.69 73.55C67.59 73.03 66.66 72.28 65.9 71.3L67.82 69.38C68.28 70.08 68.91 70.64 69.71 71.06C70.51 71.46 71.4 71.66 72.38 71.66C73.3 71.66 74.09 71.49 74.75 71.15C75.43 70.79 75.96 70.29 76.34 69.65C76.74 69.01 76.94 68.27 76.94 67.43C76.94 66.57 76.74 65.83 76.34 65.21C75.96 64.57 75.42 64.08 74.72 63.74C74.02 63.4 73.19 63.23 72.23 63.23C71.87 63.23 71.51 63.26 71.15 63.32C70.79 63.36 70.44 63.43 70.1 63.53L71.3 61.91C71.68 61.73 72.09 61.59 72.53 61.49C72.97 61.39 73.41 61.34 73.85 61.34C74.97 61.34 75.97 61.6 76.85 62.12C77.75 62.64 78.46 63.37 78.98 64.31C79.52 65.25 79.79 66.34 79.79 67.58C79.79 68.9 79.47 70.07 78.83 71.09C78.21 72.09 77.35 72.88 76.25 73.46C75.15 74.02 73.87 74.3 72.41 74.3ZM70.1 63.53V61.82L76.19 54.89L79.55 54.86L73.28 61.97L70.1 63.53ZM66.89 55.7V53.18H79.55V54.86L77.09 55.7H66.89ZM88.9826 74.3C87.5626 74.3 86.2926 74.05 85.1726 73.55C84.0726 73.03 83.1426 72.28 82.3826 71.3L84.3026 69.38C84.7626 70.08 85.3926 70.64 86.1926 71.06C87.0126 71.46 87.9226 71.66 88.9226 71.66C89.8626 71.66 90.6826 71.48 91.3826 71.12C92.1026 70.76 92.6626 70.26 93.0626 69.62C93.4826 68.96 93.6926 68.18 93.6926 67.28C93.6926 66.36 93.4926 65.58 93.0926 64.94C92.6926 64.3 92.1526 63.82 91.4726 63.5C90.8126 63.16 90.0826 62.99 89.2826 62.99C88.4626 62.99 87.7126 63.09 87.0326 63.29C86.3726 63.49 85.7426 63.83 85.1426 64.31L85.1726 62.51C85.5126 62.09 85.9026 61.75 86.3426 61.49C86.7826 61.23 87.2826 61.03 87.8426 60.89C88.4026 60.75 89.0526 60.68 89.7926 60.68C91.2326 60.68 92.4526 60.98 93.4526 61.58C94.4526 62.18 95.2126 62.99 95.7326 64.01C96.2726 65.03 96.5426 66.17 96.5426 67.43C96.5426 68.75 96.2126 69.93 95.5526 70.97C94.9126 72.01 94.0226 72.83 92.8826 73.43C91.7426 74.01 90.4426 74.3 88.9826 74.3ZM85.1426 64.31L83.6126 62.78L84.5426 53.18H87.1226L86.0726 63.05L85.1426 64.31ZM85.1126 55.7L84.5426 53.18H95.4926V55.7H85.1126ZM99.943 65.18V62.75H112.663V65.18H99.943ZM105.073 57.29H107.563V70.64H105.073V57.29Z" fill="white"/>
<path d="M152.804 80V64.732H154.872V80H152.804ZM154.212 80V78.108H162.968V80H154.212ZM154.212 73.092V71.288H162.242V73.092H154.212ZM154.212 66.624V64.732H162.858V66.624H154.212ZM172.693 80L169.437 75.424L169.063 75.072L164.949 69.55H167.347L170.317 73.62L170.691 73.928L175.091 80H172.693ZM164.751 80L169.063 74.192L170.185 75.644L167.083 80H164.751ZM170.845 75.05L169.701 73.642L172.583 69.55H174.893L170.845 75.05ZM182.814 80.22C182.022 80.22 181.304 80.0587 180.658 79.736C180.028 79.3987 179.522 78.9367 179.14 78.35C178.759 77.7633 178.546 77.096 178.502 76.348V73.202C178.546 72.4393 178.759 71.772 179.14 71.2C179.536 70.6133 180.05 70.1587 180.68 69.836C181.326 69.4987 182.037 69.33 182.814 69.33C183.768 69.33 184.626 69.572 185.388 70.056C186.166 70.54 186.774 71.1927 187.214 72.014C187.654 72.8353 187.874 73.7593 187.874 74.786C187.874 75.8127 187.654 76.7367 187.214 77.558C186.774 78.3793 186.166 79.032 185.388 79.516C184.626 79.9853 183.768 80.22 182.814 80.22ZM182.484 78.35C183.144 78.35 183.724 78.196 184.222 77.888C184.721 77.58 185.117 77.162 185.41 76.634C185.704 76.0913 185.85 75.468 185.85 74.764C185.85 74.0747 185.704 73.4587 185.41 72.916C185.117 72.3733 184.721 71.9553 184.222 71.662C183.724 71.354 183.152 71.2 182.506 71.2C181.846 71.2 181.267 71.354 180.768 71.662C180.27 71.9553 179.881 72.3733 179.602 72.916C179.324 73.4587 179.184 74.082 179.184 74.786C179.184 75.4753 179.316 76.0913 179.58 76.634C179.859 77.162 180.248 77.58 180.746 77.888C181.26 78.196 181.839 78.35 182.484 78.35ZM177.314 84.378V69.55H179.294V72.3L178.92 74.83L179.294 77.382V84.378H177.314ZM195.359 80.22C194.318 80.22 193.379 79.9853 192.543 79.516C191.707 79.032 191.047 78.3793 190.563 77.558C190.079 76.7367 189.837 75.8053 189.837 74.764C189.837 73.7373 190.072 72.8133 190.541 71.992C191.025 71.1707 191.671 70.5253 192.477 70.056C193.299 69.572 194.215 69.33 195.227 69.33C196.195 69.33 197.046 69.55 197.779 69.99C198.527 70.43 199.107 71.0387 199.517 71.816C199.943 72.5933 200.155 73.4733 200.155 74.456C200.155 74.6027 200.148 74.764 200.133 74.94C200.119 75.1013 200.089 75.292 200.045 75.512H191.223V73.862H198.989L198.263 74.5C198.263 73.796 198.139 73.202 197.889 72.718C197.64 72.2193 197.288 71.838 196.833 71.574C196.379 71.2953 195.829 71.156 195.183 71.156C194.509 71.156 193.915 71.3027 193.401 71.596C192.888 71.8893 192.492 72.3 192.213 72.828C191.935 73.356 191.795 73.9793 191.795 74.698C191.795 75.4313 191.942 76.0767 192.235 76.634C192.529 77.1767 192.947 77.602 193.489 77.91C194.032 78.2033 194.655 78.35 195.359 78.35C195.946 78.35 196.481 78.2473 196.965 78.042C197.464 77.8367 197.889 77.5287 198.241 77.118L199.517 78.416C199.019 79.0027 198.403 79.45 197.669 79.758C196.951 80.066 196.181 80.22 195.359 80.22ZM202.714 80V69.55H204.694V80H202.714ZM204.694 74.038L203.946 73.708C203.946 72.3733 204.254 71.31 204.87 70.518C205.486 69.726 206.373 69.33 207.532 69.33C208.06 69.33 208.537 69.4253 208.962 69.616C209.387 69.792 209.783 70.0927 210.15 70.518L208.852 71.86C208.632 71.6253 208.39 71.4567 208.126 71.354C207.862 71.2513 207.554 71.2 207.202 71.2C206.469 71.2 205.867 71.4347 205.398 71.904C204.929 72.3733 204.694 73.0847 204.694 74.038ZM211.966 80V69.55H213.946V80H211.966ZM212.956 67.46C212.59 67.46 212.289 67.3427 212.054 67.108C211.82 66.8587 211.702 66.5507 211.702 66.184C211.702 65.832 211.82 65.5387 212.054 65.304C212.289 65.0547 212.59 64.93 212.956 64.93C213.323 64.93 213.624 65.0547 213.858 65.304C214.093 65.5387 214.21 65.832 214.21 66.184C214.21 66.5507 214.093 66.8587 213.858 67.108C213.624 67.3427 213.323 67.46 212.956 67.46ZM222.104 80.22C221.063 80.22 220.124 79.9853 219.288 79.516C218.452 79.032 217.792 78.3793 217.308 77.558C216.824 76.7367 216.582 75.8053 216.582 74.764C216.582 73.7373 216.817 72.8133 217.286 71.992C217.77 71.1707 218.415 70.5253 219.222 70.056C220.043 69.572 220.96 69.33 221.972 69.33C222.94 69.33 223.791 69.55 224.524 69.99C225.272 70.43 225.851 71.0387 226.262 71.816C226.687 72.5933 226.9 73.4733 226.9 74.456C226.9 74.6027 226.893 74.764 226.878 74.94C226.863 75.1013 226.834 75.292 226.79 75.512H217.968V73.862H225.734L225.008 74.5C225.008 73.796 224.883 73.202 224.634 72.718C224.385 72.2193 224.033 71.838 223.578 71.574C223.123 71.2953 222.573 71.156 221.928 71.156C221.253 71.156 220.659 71.3027 220.146 71.596C219.633 71.8893 219.237 72.3 218.958 72.828C218.679 73.356 218.54 73.9793 218.54 74.698C218.54 75.4313 218.687 76.0767 218.98 76.634C219.273 77.1767 219.691 77.602 220.234 77.91C220.777 78.2033 221.4 78.35 222.104 78.35C222.691 78.35 223.226 78.2473 223.71 78.042C224.209 77.8367 224.634 77.5287 224.986 77.118L226.262 78.416C225.763 79.0027 225.147 79.45 224.414 79.758C223.695 80.066 222.925 80.22 222.104 80.22ZM236.851 80V73.906C236.851 73.114 236.602 72.4613 236.103 71.948C235.604 71.4347 234.959 71.178 234.167 71.178C233.639 71.178 233.17 71.2953 232.759 71.53C232.348 71.7647 232.026 72.0873 231.791 72.498C231.556 72.9087 231.439 73.378 231.439 73.906L230.625 73.444C230.625 72.652 230.801 71.948 231.153 71.332C231.505 70.716 231.996 70.232 232.627 69.88C233.258 69.5133 233.969 69.33 234.761 69.33C235.553 69.33 236.25 69.528 236.851 69.924C237.467 70.32 237.951 70.8407 238.303 71.486C238.655 72.1167 238.831 72.7913 238.831 73.51V80H236.851ZM229.459 80V69.55H231.439V80H229.459ZM246.686 80.22C245.659 80.22 244.728 79.978 243.892 79.494C243.07 79.01 242.418 78.3573 241.934 77.536C241.464 76.7 241.23 75.776 241.23 74.764C241.23 73.7373 241.464 72.8133 241.934 71.992C242.418 71.1707 243.07 70.5253 243.892 70.056C244.728 69.572 245.659 69.33 246.686 69.33C247.492 69.33 248.24 69.484 248.93 69.792C249.619 70.0853 250.213 70.518 250.712 71.09L249.392 72.41C249.069 72.0287 248.673 71.7427 248.204 71.552C247.749 71.3467 247.243 71.244 246.686 71.244C246.026 71.244 245.439 71.398 244.926 71.706C244.412 71.9993 244.009 72.41 243.716 72.938C243.422 73.466 243.276 74.0747 243.276 74.764C243.276 75.4533 243.422 76.062 243.716 76.59C244.009 77.118 244.412 77.536 244.926 77.844C245.439 78.152 246.026 78.306 246.686 78.306C247.243 78.306 247.749 78.2107 248.204 78.02C248.673 77.8147 249.076 77.5213 249.414 77.14L250.712 78.46C250.228 79.0173 249.634 79.45 248.93 79.758C248.24 80.066 247.492 80.22 246.686 80.22ZM257.701 80.22C256.659 80.22 255.721 79.9853 254.885 79.516C254.049 79.032 253.389 78.3793 252.905 77.558C252.421 76.7367 252.179 75.8053 252.179 74.764C252.179 73.7373 252.413 72.8133 252.883 71.992C253.367 71.1707 254.012 70.5253 254.819 70.056C255.64 69.572 256.557 69.33 257.569 69.33C258.537 69.33 259.387 69.55 260.121 69.99C260.869 70.43 261.448 71.0387 261.859 71.816C262.284 72.5933 262.497 73.4733 262.497 74.456C262.497 74.6027 262.489 74.764 262.475 74.94C262.46 75.1013 262.431 75.292 262.387 75.512H253.565V73.862H261.331L260.605 74.5C260.605 73.796 260.48 73.202 260.231 72.718C259.981 72.2193 259.629 71.838 259.175 71.574C258.72 71.2953 258.17 71.156 257.525 71.156C256.85 71.156 256.256 71.3027 255.743 71.596C255.229 71.8893 254.833 72.3 254.555 72.828C254.276 73.356 254.137 73.9793 254.137 74.698C254.137 75.4313 254.283 76.0767 254.577 76.634C254.87 77.1767 255.288 77.602 255.831 77.91C256.373 78.2033 256.997 78.35 257.701 78.35C258.287 78.35 258.823 78.2473 259.307 78.042C259.805 77.8367 260.231 77.5287 260.583 77.118L261.859 78.416C261.36 79.0027 260.744 79.45 260.011 79.758C259.292 80.066 258.522 80.22 257.701 80.22Z" fill="#1F2732"/>
<path d="M157.644 45.796L151.638 36.732H154.036L158.876 44.146H157.798L162.66 36.732H165.014L158.964 45.796H157.644ZM157.292 52V44.432H159.36V52H157.292ZM169.079 52.22C168.037 52.22 167.099 51.9853 166.263 51.516C165.427 51.032 164.767 50.3793 164.283 49.558C163.799 48.7367 163.557 47.8053 163.557 46.764C163.557 45.7373 163.791 44.8133 164.261 43.992C164.745 43.1707 165.39 42.5253 166.197 42.056C167.018 41.572 167.935 41.33 168.947 41.33C169.915 41.33 170.765 41.55 171.499 41.99C172.247 42.43 172.826 43.0387 173.237 43.816C173.662 44.5933 173.875 45.4733 173.875 46.456C173.875 46.6027 173.867 46.764 173.853 46.94C173.838 47.1013 173.809 47.292 173.765 47.512H164.943V45.862H172.709L171.983 46.5C171.983 45.796 171.858 45.202 171.609 44.718C171.359 44.2193 171.007 43.838 170.553 43.574C170.098 43.2953 169.548 43.156 168.903 43.156C168.228 43.156 167.634 43.3027 167.121 43.596C166.607 43.8893 166.211 44.3 165.933 44.828C165.654 45.356 165.515 45.9793 165.515 46.698C165.515 47.4313 165.661 48.0767 165.955 48.634C166.248 49.1767 166.666 49.602 167.209 49.91C167.751 50.2033 168.375 50.35 169.079 50.35C169.665 50.35 170.201 50.2473 170.685 50.042C171.183 49.8367 171.609 49.5287 171.961 49.118L173.237 50.416C172.738 51.0027 172.122 51.45 171.389 51.758C170.67 52.066 169.9 52.22 169.079 52.22ZM180.878 52.22C179.924 52.22 179.059 51.9853 178.282 51.516C177.504 51.032 176.888 50.3793 176.434 49.558C175.994 48.7367 175.774 47.8127 175.774 46.786C175.774 45.7593 175.994 44.8353 176.434 44.014C176.888 43.1927 177.497 42.54 178.26 42.056C179.037 41.572 179.91 41.33 180.878 41.33C181.67 41.33 182.374 41.4987 182.99 41.836C183.62 42.1587 184.126 42.6133 184.508 43.2C184.889 43.772 185.102 44.4393 185.146 45.202V48.348C185.102 49.096 184.889 49.7633 184.508 50.35C184.141 50.9367 183.642 51.3987 183.012 51.736C182.396 52.0587 181.684 52.22 180.878 52.22ZM181.208 50.35C182.19 50.35 182.982 50.02 183.584 49.36C184.185 48.6853 184.486 47.8273 184.486 46.786C184.486 46.0673 184.346 45.444 184.068 44.916C183.804 44.3733 183.422 43.9553 182.924 43.662C182.425 43.354 181.846 43.2 181.186 43.2C180.526 43.2 179.939 43.354 179.426 43.662C178.927 43.97 178.531 44.3953 178.238 44.938C177.959 45.466 177.82 46.0747 177.82 46.764C177.82 47.468 177.959 48.0913 178.238 48.634C178.531 49.162 178.934 49.58 179.448 49.888C179.961 50.196 180.548 50.35 181.208 50.35ZM184.354 52V49.184L184.728 46.632L184.354 44.102V41.55H186.356V52H184.354ZM189.638 52V41.55H191.618V52H189.638ZM191.618 46.038L190.87 45.708C190.87 44.3733 191.178 43.31 191.794 42.518C192.41 41.726 193.298 41.33 194.456 41.33C194.984 41.33 195.461 41.4253 195.886 41.616C196.312 41.792 196.708 42.0927 197.074 42.518L195.776 43.86C195.556 43.6253 195.314 43.4567 195.05 43.354C194.786 43.2513 194.478 43.2 194.126 43.2C193.393 43.2 192.792 43.4347 192.322 43.904C191.853 44.3733 191.618 45.0847 191.618 46.038ZM201.954 52.22C201.367 52.22 200.81 52.1467 200.282 52C199.769 51.8387 199.292 51.6187 198.852 51.34C198.412 51.0467 198.031 50.702 197.708 50.306L198.984 49.03C199.365 49.4993 199.805 49.8513 200.304 50.086C200.803 50.306 201.36 50.416 201.976 50.416C202.592 50.416 203.069 50.3133 203.406 50.108C203.743 49.888 203.912 49.5873 203.912 49.206C203.912 48.8247 203.773 48.5313 203.494 48.326C203.23 48.106 202.885 47.93 202.46 47.798C202.035 47.6513 201.58 47.512 201.096 47.38C200.627 47.2333 200.179 47.05 199.754 46.83C199.329 46.61 198.977 46.3093 198.698 45.928C198.434 45.5467 198.302 45.0407 198.302 44.41C198.302 43.7793 198.456 43.2367 198.764 42.782C199.072 42.3127 199.497 41.9533 200.04 41.704C200.597 41.4547 201.265 41.33 202.042 41.33C202.863 41.33 203.589 41.4767 204.22 41.77C204.865 42.0487 205.393 42.474 205.804 43.046L204.528 44.322C204.235 43.9407 203.868 43.6473 203.428 43.442C203.003 43.2367 202.519 43.134 201.976 43.134C201.404 43.134 200.964 43.2367 200.656 43.442C200.363 43.6327 200.216 43.904 200.216 44.256C200.216 44.608 200.348 44.8793 200.612 45.07C200.876 45.2607 201.221 45.422 201.646 45.554C202.086 45.686 202.541 45.8253 203.01 45.972C203.479 46.104 203.927 46.2873 204.352 46.522C204.777 46.7567 205.122 47.072 205.386 47.468C205.665 47.864 205.804 48.3847 205.804 49.03C205.804 50.0127 205.452 50.79 204.748 51.362C204.059 51.934 203.127 52.22 201.954 52.22Z" fill="#1F2732"/>
</svg>
