<svg width="315" height="126" viewBox="0 0 315 126" fill="none" xmlns="http://www.w3.org/2000/svg">
<path d="M0 0H315V126H0V0Z" fill="#3B434E"/>
<path d="M101.931 39.5593L98.0862 48.0446C97.9099 48.4335 97.8187 48.8557 97.8187 49.2827V87.1315C97.8187 88.2361 98.7142 89.1315 99.8187 89.1315H104.954C106.059 89.1315 106.954 88.2361 106.954 87.1315V49.2827C106.954 48.8557 106.863 48.4335 106.687 48.0446L102.842 39.5593C102.664 39.1677 102.108 39.1677 101.931 39.5593Z" stroke="#D1B06B" stroke-width="2"/>
<path d="M97.8187 49.2827H102.957H106.954" stroke="#D1B06B" stroke-width="2"/>
<path d="M83.6711 59.3362H58.0009C57.3565 59.3362 56.8341 59.8586 56.8341 60.503C56.8341 61.1474 57.3565 61.6698 58.0009 61.6698H83.6711C84.3155 61.6698 84.8379 61.1474 84.8379 60.503C84.8379 59.8586 84.3155 59.3362 83.6711 59.3362Z" fill="#D1B06B"/>
<path d="M66.8355 43.1675H59.6677C58.8393 43.1675 58.1677 43.8391 58.1677 44.6675V49.5016C58.1677 50.33 58.8393 51.0016 59.6677 51.0016H66.8355C67.664 51.0016 68.3355 50.33 68.3355 49.5016V44.6675C68.3355 43.8391 67.664 43.1675 66.8355 43.1675Z" stroke="#D1B06B" stroke-width="2"/>
<path d="M83.6711 71.0046H58.0009C57.3565 71.0046 56.8341 71.527 56.8341 72.1715C56.8341 72.8159 57.3565 73.3383 58.0009 73.3383H83.6711C84.3155 73.3383 84.8379 72.8159 84.8379 72.1715C84.8379 71.527 84.3155 71.0046 83.6711 71.0046Z" fill="#D1B06B"/>
<path d="M73.1697 76.8386H58.0009C57.3565 76.8386 56.8341 77.361 56.8341 78.0054C56.8341 78.6499 57.3565 79.1723 58.0009 79.1723H73.1697C73.8141 79.1723 74.3365 78.6499 74.3365 78.0054C74.3365 77.361 73.8141 76.8386 73.1697 76.8386Z" fill="#D1B06B"/>
<path d="M83.6711 65.1704H58.0009C57.3565 65.1704 56.8341 65.6928 56.8341 66.3372C56.8341 66.9817 57.3565 67.5041 58.0009 67.5041H83.6711C84.3155 67.5041 84.8379 66.9817 84.8379 66.3372C84.8379 65.6928 84.3155 65.1704 83.6711 65.1704Z" fill="#D1B06B"/>
<path d="M97.8187 84.0225H106.954" stroke="#D1B06B" stroke-width="2"/>
<path d="M51 42.9998V82.3846C51 86.2506 54.134 89.3846 58 89.3846H84.2603C88.1263 89.3846 91.2603 86.2506 91.2603 82.3846V50.728C91.2603 48.7405 90.4154 46.8467 88.9365 45.519L80.3278 37.7908C79.0432 36.6376 77.3778 35.9998 75.6516 35.9998H58C54.134 35.9998 51 39.1338 51 42.9998Z" stroke="#D1B06B" stroke-width="2"/>
<path d="M75.9808 36.2168V45.8885C75.9808 48.0977 77.7717 49.8885 79.9808 49.8885H90.2902" stroke="#D1B06B" stroke-width="2" stroke-linecap="round"/>
<path d="M131.234 52L135.832 45.73L136.58 45.334C136.404 45.6273 136.191 45.884 135.942 46.104C135.693 46.324 135.385 46.4927 135.018 46.61C134.666 46.7273 134.233 46.786 133.72 46.786C132.84 46.786 132.026 46.5733 131.278 46.148C130.545 45.7227 129.958 45.136 129.518 44.388C129.078 43.6253 128.858 42.7673 128.858 41.814C128.858 40.8313 129.1 39.944 129.584 39.152C130.068 38.3453 130.713 37.7073 131.52 37.238C132.327 36.754 133.221 36.512 134.204 36.512C135.201 36.512 136.103 36.7467 136.91 37.216C137.717 37.6853 138.355 38.316 138.824 39.108C139.293 39.8853 139.528 40.7653 139.528 41.748C139.528 43.0973 139.059 44.4393 138.12 45.774L133.632 52H131.234ZM134.204 45.158C134.82 45.158 135.37 45.0113 135.854 44.718C136.353 44.41 136.741 44.0067 137.02 43.508C137.313 42.9947 137.46 42.43 137.46 41.814C137.46 41.1687 137.313 40.5967 137.02 40.098C136.741 39.5847 136.353 39.1813 135.854 38.888C135.37 38.5947 134.82 38.448 134.204 38.448C133.588 38.448 133.031 38.5947 132.532 38.888C132.048 39.1813 131.659 39.5847 131.366 40.098C131.073 40.5967 130.926 41.1687 130.926 41.814C130.926 42.4447 131.073 43.0093 131.366 43.508C131.659 44.0067 132.055 44.41 132.554 44.718C133.053 45.0113 133.603 45.158 134.204 45.158ZM146.274 52.22C145.233 52.22 144.301 52.0367 143.48 51.67C142.673 51.2887 141.991 50.7387 141.434 50.02L142.842 48.612C143.179 49.1253 143.641 49.536 144.228 49.844C144.829 50.1373 145.497 50.284 146.23 50.284C146.919 50.284 147.521 50.152 148.034 49.888C148.562 49.624 148.973 49.2573 149.266 48.788C149.574 48.304 149.728 47.732 149.728 47.072C149.728 46.3973 149.581 45.8253 149.288 45.356C148.995 44.8867 148.599 44.5347 148.1 44.3C147.616 44.0507 147.081 43.926 146.494 43.926C145.893 43.926 145.343 43.9993 144.844 44.146C144.36 44.2927 143.898 44.542 143.458 44.894L143.48 43.574C143.729 43.266 144.015 43.0167 144.338 42.826C144.661 42.6353 145.027 42.4887 145.438 42.386C145.849 42.2833 146.325 42.232 146.868 42.232C147.924 42.232 148.819 42.452 149.552 42.892C150.285 43.332 150.843 43.926 151.224 44.674C151.62 45.422 151.818 46.258 151.818 47.182C151.818 48.15 151.576 49.0153 151.092 49.778C150.623 50.5407 149.97 51.142 149.134 51.582C148.298 52.0073 147.345 52.22 146.274 52.22ZM143.458 44.894L142.336 43.772L143.018 36.732H144.91L144.14 43.97L143.458 44.894ZM143.436 38.58L143.018 36.732H151.048V38.58H143.436ZM157.3 42.694C156.743 42.694 156.23 42.5547 155.76 42.276C155.291 41.9973 154.917 41.6233 154.638 41.154C154.36 40.6847 154.22 40.164 154.22 39.592C154.22 39.0053 154.352 38.4847 154.616 38.03C154.895 37.5753 155.269 37.2087 155.738 36.93C156.208 36.6513 156.728 36.512 157.3 36.512C157.887 36.512 158.415 36.6513 158.884 36.93C159.354 37.2087 159.728 37.5753 160.006 38.03C160.285 38.4847 160.424 39.0053 160.424 39.592C160.424 40.164 160.285 40.6847 160.006 41.154C159.728 41.6233 159.354 41.9973 158.884 42.276C158.43 42.5547 157.902 42.694 157.3 42.694ZM157.3 41.132C157.74 41.132 158.1 40.9927 158.378 40.714C158.657 40.4207 158.796 40.0467 158.796 39.592C158.796 39.1373 158.65 38.7707 158.356 38.492C158.078 38.2133 157.726 38.074 157.3 38.074C156.875 38.074 156.523 38.2133 156.244 38.492C155.98 38.7707 155.848 39.1373 155.848 39.592C155.848 40.0467 155.98 40.4207 156.244 40.714C156.523 40.9927 156.875 41.132 157.3 41.132ZM163.438 52.22C162.866 52.22 162.346 52.0807 161.876 51.802C161.407 51.5233 161.033 51.1567 160.754 50.702C160.476 50.2327 160.336 49.7047 160.336 49.118C160.336 48.546 160.476 48.0327 160.754 47.578C161.033 47.1087 161.407 46.7347 161.876 46.456C162.346 46.1773 162.866 46.038 163.438 46.038C164.01 46.038 164.531 46.1773 165 46.456C165.484 46.7347 165.866 47.1087 166.144 47.578C166.423 48.0327 166.562 48.546 166.562 49.118C166.562 49.7047 166.423 50.2327 166.144 50.702C165.866 51.1567 165.492 51.5233 165.022 51.802C164.553 52.0807 164.025 52.22 163.438 52.22ZM163.438 50.658C163.878 50.658 164.238 50.5187 164.516 50.24C164.795 49.9467 164.934 49.5727 164.934 49.118C164.934 48.678 164.788 48.3187 164.494 48.04C164.216 47.7467 163.864 47.6 163.438 47.6C163.013 47.6 162.661 47.7467 162.382 48.04C162.104 48.3187 161.964 48.678 161.964 49.118C161.964 49.5727 162.104 49.9467 162.382 50.24C162.661 50.5187 163.013 50.658 163.438 50.658ZM154.484 52L164.274 36.732H166.276L156.486 52H154.484Z" fill="#D7D7D7"/>
<path d="M136.734 80.22C135.634 80.22 134.615 80.022 133.676 79.626C132.737 79.2153 131.916 78.6507 131.212 77.932C130.523 77.2133 129.987 76.3773 129.606 75.424C129.225 74.4707 129.034 73.4513 129.034 72.366C129.034 71.266 129.225 70.2393 129.606 69.286C129.987 68.3327 130.523 67.504 131.212 66.8C131.916 66.0813 132.73 65.524 133.654 65.128C134.593 64.7173 135.612 64.512 136.712 64.512C137.915 64.512 138.971 64.7173 139.88 65.128C140.789 65.5387 141.596 66.096 142.3 66.8L140.87 68.23C140.386 67.6873 139.792 67.262 139.088 66.954C138.399 66.646 137.607 66.492 136.712 66.492C135.905 66.492 135.165 66.6387 134.49 66.932C133.815 67.2107 133.229 67.614 132.73 68.142C132.231 68.67 131.843 69.2933 131.564 70.012C131.3 70.7307 131.168 71.5153 131.168 72.366C131.168 73.2167 131.3 74.0013 131.564 74.72C131.843 75.4387 132.231 76.062 132.73 76.59C133.229 77.118 133.815 77.5287 134.49 77.822C135.165 78.1007 135.905 78.24 136.712 78.24C137.665 78.24 138.494 78.086 139.198 77.778C139.902 77.4553 140.496 77.0227 140.98 76.48L142.41 77.888C141.706 78.6213 140.877 79.1933 139.924 79.604C138.985 80.0147 137.922 80.22 136.734 80.22ZM149.077 80.22C148.124 80.22 147.259 79.9853 146.481 79.516C145.704 79.032 145.088 78.3793 144.633 77.558C144.193 76.7367 143.973 75.8127 143.973 74.786C143.973 73.7593 144.193 72.8353 144.633 72.014C145.088 71.1927 145.697 70.54 146.459 70.056C147.237 69.572 148.109 69.33 149.077 69.33C149.869 69.33 150.573 69.4987 151.189 69.836C151.82 70.1587 152.326 70.6133 152.707 71.2C153.089 71.772 153.301 72.4393 153.345 73.202V76.348C153.301 77.096 153.089 77.7633 152.707 78.35C152.341 78.9367 151.842 79.3987 151.211 79.736C150.595 80.0587 149.884 80.22 149.077 80.22ZM149.407 78.35C150.39 78.35 151.182 78.02 151.783 77.36C152.385 76.6853 152.685 75.8273 152.685 74.786C152.685 74.0673 152.546 73.444 152.267 72.916C152.003 72.3733 151.622 71.9553 151.123 71.662C150.625 71.354 150.045 71.2 149.385 71.2C148.725 71.2 148.139 71.354 147.625 71.662C147.127 71.97 146.731 72.3953 146.437 72.938C146.159 73.466 146.019 74.0747 146.019 74.764C146.019 75.468 146.159 76.0913 146.437 76.634C146.731 77.162 147.134 77.58 147.647 77.888C148.161 78.196 148.747 78.35 149.407 78.35ZM152.553 80V77.184L152.927 74.632L152.553 72.102V69.55H154.555V80H152.553ZM161.16 80.22C160.573 80.22 160.016 80.1467 159.488 80C158.975 79.8387 158.498 79.6187 158.058 79.34C157.618 79.0467 157.237 78.702 156.914 78.306L158.19 77.03C158.571 77.4993 159.011 77.8513 159.51 78.086C160.009 78.306 160.566 78.416 161.182 78.416C161.798 78.416 162.275 78.3133 162.612 78.108C162.949 77.888 163.118 77.5873 163.118 77.206C163.118 76.8247 162.979 76.5313 162.7 76.326C162.436 76.106 162.091 75.93 161.666 75.798C161.241 75.6513 160.786 75.512 160.302 75.38C159.833 75.2333 159.385 75.05 158.96 74.83C158.535 74.61 158.183 74.3093 157.904 73.928C157.64 73.5467 157.508 73.0407 157.508 72.41C157.508 71.7793 157.662 71.2367 157.97 70.782C158.278 70.3127 158.703 69.9533 159.246 69.704C159.803 69.4547 160.471 69.33 161.248 69.33C162.069 69.33 162.795 69.4767 163.426 69.77C164.071 70.0487 164.599 70.474 165.01 71.046L163.734 72.322C163.441 71.9407 163.074 71.6473 162.634 71.442C162.209 71.2367 161.725 71.134 161.182 71.134C160.61 71.134 160.17 71.2367 159.862 71.442C159.569 71.6327 159.422 71.904 159.422 72.256C159.422 72.608 159.554 72.8793 159.818 73.07C160.082 73.2607 160.427 73.422 160.852 73.554C161.292 73.686 161.747 73.8253 162.216 73.972C162.685 74.104 163.133 74.2873 163.558 74.522C163.983 74.7567 164.328 75.072 164.592 75.468C164.871 75.864 165.01 76.3847 165.01 77.03C165.01 78.0127 164.658 78.79 163.954 79.362C163.265 79.934 162.333 80.22 161.16 80.22ZM172.467 80.22C171.425 80.22 170.487 79.9853 169.651 79.516C168.815 79.032 168.155 78.3793 167.671 77.558C167.187 76.7367 166.945 75.8053 166.945 74.764C166.945 73.7373 167.179 72.8133 167.649 71.992C168.133 71.1707 168.778 70.5253 169.585 70.056C170.406 69.572 171.323 69.33 172.335 69.33C173.303 69.33 174.153 69.55 174.887 69.99C175.635 70.43 176.214 71.0387 176.625 71.816C177.05 72.5933 177.263 73.4733 177.263 74.456C177.263 74.6027 177.255 74.764 177.241 74.94C177.226 75.1013 177.197 75.292 177.153 75.512H168.331V73.862H176.097L175.371 74.5C175.371 73.796 175.246 73.202 174.997 72.718C174.747 72.2193 174.395 71.838 173.941 71.574C173.486 71.2953 172.936 71.156 172.291 71.156C171.616 71.156 171.022 71.3027 170.509 71.596C169.995 71.8893 169.599 72.3 169.321 72.828C169.042 73.356 168.903 73.9793 168.903 74.698C168.903 75.4313 169.049 76.0767 169.343 76.634C169.636 77.1767 170.054 77.602 170.597 77.91C171.139 78.2033 171.763 78.35 172.467 78.35C173.053 78.35 173.589 78.2473 174.073 78.042C174.571 77.8367 174.997 77.5287 175.349 77.118L176.625 78.416C176.126 79.0027 175.51 79.45 174.777 79.758C174.058 80.066 173.288 80.22 172.467 80.22ZM189.396 80.22C188.193 80.22 187.166 80 186.316 79.56C185.465 79.12 184.71 78.482 184.05 77.646L185.458 76.238C185.942 76.9127 186.499 77.426 187.13 77.778C187.76 78.1153 188.538 78.284 189.462 78.284C190.371 78.284 191.097 78.086 191.64 77.69C192.197 77.294 192.476 76.7513 192.476 76.062C192.476 75.49 192.344 75.028 192.08 74.676C191.816 74.324 191.456 74.038 191.002 73.818C190.562 73.5833 190.078 73.378 189.55 73.202C189.022 73.0113 188.494 72.8133 187.966 72.608C187.438 72.388 186.954 72.124 186.514 71.816C186.074 71.4933 185.714 71.0753 185.436 70.562C185.172 70.0487 185.04 69.4033 185.04 68.626C185.04 67.7607 185.245 67.0273 185.656 66.426C186.081 65.81 186.653 65.3407 187.372 65.018C188.105 64.6807 188.926 64.512 189.836 64.512C190.833 64.512 191.728 64.71 192.52 65.106C193.312 65.4873 193.957 65.9933 194.456 66.624L193.048 68.032C192.593 67.504 192.102 67.108 191.574 66.844C191.06 66.58 190.466 66.448 189.792 66.448C188.97 66.448 188.318 66.6313 187.834 66.998C187.35 67.35 187.108 67.8487 187.108 68.494C187.108 69.0073 187.24 69.4253 187.504 69.748C187.782 70.056 188.142 70.32 188.582 70.54C189.022 70.76 189.506 70.9653 190.034 71.156C190.576 71.332 191.112 71.53 191.64 71.75C192.168 71.97 192.652 72.2487 193.092 72.586C193.532 72.9233 193.884 73.3633 194.148 73.906C194.426 74.434 194.566 75.1013 194.566 75.908C194.566 77.2573 194.096 78.3133 193.158 79.076C192.234 79.8387 190.98 80.22 189.396 80.22ZM201.603 80.22C200.752 80.22 199.982 80.0293 199.293 79.648C198.618 79.252 198.09 78.7093 197.709 78.02C197.327 77.3307 197.137 76.5313 197.137 75.622V69.55H199.117V75.534C199.117 76.106 199.212 76.6047 199.403 77.03C199.608 77.4407 199.901 77.756 200.283 77.976C200.664 78.196 201.111 78.306 201.625 78.306C202.402 78.306 203.011 78.064 203.451 77.58C203.891 77.0813 204.111 76.3993 204.111 75.534V69.55H206.091V75.622C206.091 76.5313 205.9 77.3307 205.519 78.02C205.137 78.7093 204.609 79.252 203.935 79.648C203.275 80.0293 202.497 80.22 201.603 80.22ZM213.919 80.22C212.892 80.22 211.961 79.978 211.125 79.494C210.303 79.01 209.651 78.3573 209.167 77.536C208.697 76.7 208.463 75.776 208.463 74.764C208.463 73.7373 208.697 72.8133 209.167 71.992C209.651 71.1707 210.303 70.5253 211.125 70.056C211.961 69.572 212.892 69.33 213.919 69.33C214.725 69.33 215.473 69.484 216.163 69.792C216.852 70.0853 217.446 70.518 217.945 71.09L216.625 72.41C216.302 72.0287 215.906 71.7427 215.437 71.552C214.982 71.3467 214.476 71.244 213.919 71.244C213.259 71.244 212.672 71.398 212.159 71.706C211.645 71.9993 211.242 72.41 210.949 72.938C210.655 73.466 210.509 74.0747 210.509 74.764C210.509 75.4533 210.655 76.062 210.949 76.59C211.242 77.118 211.645 77.536 212.159 77.844C212.672 78.152 213.259 78.306 213.919 78.306C214.476 78.306 214.982 78.2107 215.437 78.02C215.906 77.8147 216.309 77.5213 216.647 77.14L217.945 78.46C217.461 79.0173 216.867 79.45 216.163 79.758C215.473 80.066 214.725 80.22 213.919 80.22ZM224.867 80.22C223.841 80.22 222.909 79.978 222.073 79.494C221.252 79.01 220.599 78.3573 220.115 77.536C219.646 76.7 219.411 75.776 219.411 74.764C219.411 73.7373 219.646 72.8133 220.115 71.992C220.599 71.1707 221.252 70.5253 222.073 70.056C222.909 69.572 223.841 69.33 224.867 69.33C225.674 69.33 226.422 69.484 227.111 69.792C227.801 70.0853 228.395 70.518 228.893 71.09L227.573 72.41C227.251 72.0287 226.855 71.7427 226.385 71.552C225.931 71.3467 225.425 71.244 224.867 71.244C224.207 71.244 223.621 71.398 223.107 71.706C222.594 71.9993 222.191 72.41 221.897 72.938C221.604 73.466 221.457 74.0747 221.457 74.764C221.457 75.4533 221.604 76.062 221.897 76.59C222.191 77.118 222.594 77.536 223.107 77.844C223.621 78.152 224.207 78.306 224.867 78.306C225.425 78.306 225.931 78.2107 226.385 78.02C226.855 77.8147 227.258 77.5213 227.595 77.14L228.893 78.46C228.409 79.0173 227.815 79.45 227.111 79.758C226.422 80.066 225.674 80.22 224.867 80.22ZM235.882 80.22C234.841 80.22 233.902 79.9853 233.066 79.516C232.23 79.032 231.57 78.3793 231.086 77.558C230.602 76.7367 230.36 75.8053 230.36 74.764C230.36 73.7373 230.595 72.8133 231.064 71.992C231.548 71.1707 232.194 70.5253 233 70.056C233.822 69.572 234.738 69.33 235.75 69.33C236.718 69.33 237.569 69.55 238.302 69.99C239.05 70.43 239.63 71.0387 240.04 71.816C240.466 72.5933 240.678 73.4733 240.678 74.456C240.678 74.6027 240.671 74.764 240.656 74.94C240.642 75.1013 240.612 75.292 240.568 75.512H231.746V73.862H239.512L238.786 74.5C238.786 73.796 238.662 73.202 238.412 72.718C238.163 72.2193 237.811 71.838 237.356 71.574C236.902 71.2953 236.352 71.156 235.706 71.156C235.032 71.156 234.438 71.3027 233.924 71.596C233.411 71.8893 233.015 72.3 232.736 72.828C232.458 73.356 232.318 73.9793 232.318 74.698C232.318 75.4313 232.465 76.0767 232.758 76.634C233.052 77.1767 233.47 77.602 234.012 77.91C234.555 78.2033 235.178 78.35 235.882 78.35C236.469 78.35 237.004 78.2473 237.488 78.042C237.987 77.8367 238.412 77.5287 238.764 77.118L240.04 78.416C239.542 79.0027 238.926 79.45 238.192 79.758C237.474 80.066 236.704 80.22 235.882 80.22ZM246.559 80.22C245.972 80.22 245.415 80.1467 244.887 80C244.374 79.8387 243.897 79.6187 243.457 79.34C243.017 79.0467 242.636 78.702 242.313 78.306L243.589 77.03C243.97 77.4993 244.41 77.8513 244.909 78.086C245.408 78.306 245.965 78.416 246.581 78.416C247.197 78.416 247.674 78.3133 248.011 78.108C248.348 77.888 248.517 77.5873 248.517 77.206C248.517 76.8247 248.378 76.5313 248.099 76.326C247.835 76.106 247.49 75.93 247.065 75.798C246.64 75.6513 246.185 75.512 245.701 75.38C245.232 75.2333 244.784 75.05 244.359 74.83C243.934 74.61 243.582 74.3093 243.303 73.928C243.039 73.5467 242.907 73.0407 242.907 72.41C242.907 71.7793 243.061 71.2367 243.369 70.782C243.677 70.3127 244.102 69.9533 244.645 69.704C245.202 69.4547 245.87 69.33 246.647 69.33C247.468 69.33 248.194 69.4767 248.825 69.77C249.47 70.0487 249.998 70.474 250.409 71.046L249.133 72.322C248.84 71.9407 248.473 71.6473 248.033 71.442C247.608 71.2367 247.124 71.134 246.581 71.134C246.009 71.134 245.569 71.2367 245.261 71.442C244.968 71.6327 244.821 71.904 244.821 72.256C244.821 72.608 244.953 72.8793 245.217 73.07C245.481 73.2607 245.826 73.422 246.251 73.554C246.691 73.686 247.146 73.8253 247.615 73.972C248.084 74.104 248.532 74.2873 248.957 74.522C249.382 74.7567 249.727 75.072 249.991 75.468C250.27 75.864 250.409 76.3847 250.409 77.03C250.409 78.0127 250.057 78.79 249.353 79.362C248.664 79.934 247.732 80.22 246.559 80.22ZM256.348 80.22C255.761 80.22 255.204 80.1467 254.676 80C254.162 79.8387 253.686 79.6187 253.246 79.34C252.806 79.0467 252.424 78.702 252.102 78.306L253.378 77.03C253.759 77.4993 254.199 77.8513 254.698 78.086C255.196 78.306 255.754 78.416 256.37 78.416C256.986 78.416 257.462 78.3133 257.8 78.108C258.137 77.888 258.306 77.5873 258.306 77.206C258.306 76.8247 258.166 76.5313 257.888 76.326C257.624 76.106 257.279 75.93 256.854 75.798C256.428 75.6513 255.974 75.512 255.49 75.38C255.02 75.2333 254.573 75.05 254.148 74.83C253.722 74.61 253.37 74.3093 253.092 73.928C252.828 73.5467 252.696 73.0407 252.696 72.41C252.696 71.7793 252.85 71.2367 253.158 70.782C253.466 70.3127 253.891 69.9533 254.434 69.704C254.991 69.4547 255.658 69.33 256.436 69.33C257.257 69.33 257.983 69.4767 258.614 69.77C259.259 70.0487 259.787 70.474 260.198 71.046L258.922 72.322C258.628 71.9407 258.262 71.6473 257.822 71.442C257.396 71.2367 256.912 71.134 256.37 71.134C255.798 71.134 255.358 71.2367 255.05 71.442C254.756 71.6327 254.61 71.904 254.61 72.256C254.61 72.608 254.742 72.8793 255.006 73.07C255.27 73.2607 255.614 73.422 256.04 73.554C256.48 73.686 256.934 73.8253 257.404 73.972C257.873 74.104 258.32 74.2873 258.746 74.522C259.171 74.7567 259.516 75.072 259.78 75.468C260.058 75.864 260.198 76.3847 260.198 77.03C260.198 78.0127 259.846 78.79 259.142 79.362C258.452 79.934 257.521 80.22 256.348 80.22Z" fill="#D7D7D7"/>
</svg>
